<?xml version='1.0' encoding='utf-8'?>
<!-- Generator: imaengine 6.0   -->
<svg viewBox="0,0,1702,1440" xmlns:xlink="http://www.w3.org/1999/xlink" xmlns="http://www.w3.org/2000/svg" width="1702" height="1440" version="1.1">
<defs/>
<g id="layer0">
<path d="M675.405,1292.4C686.305,1286.8 823.86,1201.15 896.405,1127.4C1014.1,1007.73 1067.18,883.117 1103.4,726.396C1116.3,721.896 1239.29,656.466 1270.36,640.002C1289.88,631.44 1285.4,629.538 1320.62,623.783C1315.3,617.495 1290.68,606.837 1272.98,598.63C1260.09,581.364 1212.5,541.996 1200.4,535.396C1187.4,528.996 1121.2,516.296 1103.4,513.396C1073.46,498.072 1115.98,460.21 1069.4,432.396C907.661,343.793 691.138,286.038 670.138,283.938C690.676,305.807 754.851,377.346 779.054,433.898C800.218,483.351 749.396,503.345 723.55,514.324C657.169,542.522 199.437,591.496 182.537,593.296C180.437,614.196 243.705,608.396 241.405,622.396C232.005,638.696 204.505,641.596 194.405,653.396C194.405,653.396 453.038,660.57 693.405,706.396C709.705,707.496 811.505,728.696 824.405,744.396C828.08,814.567 797.205,888.196 786.405,905.396C700.974,1088.37 668.305,1274.3 675.405,1292.4Z" stroke="#000000" stroke-width="3.75" stroke-linecap="round" fill="#33231f" stroke-linejoin="round"/>
<path d="M819.339,724.754C838.325,734.264 815.607,675.714 808.561,661.74C801.361,644.74 791.921,622.224 770.032,644.262C717.827,688.471 679.832,673.962 671.032,685.262C685.932,690.462 793.133,711.628 819.339,724.754Z" stroke="#000000" stroke-width="3.75" stroke-linecap="round" fill="#acd3ff" stroke-linejoin="round"/>
<path d="M1098.56,712.517C1111.76,713.817 1147.97,692.362 1156.04,687.488C1164.12,682.613 1238.65,649.679 1232.05,641.84C1230.13,635.101 1170.2,648.667 1142.7,646.917C1115.2,645.167 1086.84,614.68 1069.4,618.037C1092.51,666.033 1092.66,699.617 1098.56,712.517Z" stroke="#000000" stroke-width="3.75" stroke-linecap="round" fill="#acd3ff" stroke-linejoin="round"/>
<path d="M1199.91,574.503C1191.76,578.681 1184.95,589.438 1188.31,597.492C1189.37,600.024 1191.59,601.653 1194.8,603.004C1195.39,603.25 1207.3,607.71 1212.39,607.873C1217.49,608.036 1223.74,608.545 1227.86,606.788C1232.42,604.84 1237.51,600.463 1237.44,596.026C1237.3,587.3 1228.17,577.51 1220.42,574.175C1213.58,571.232 1202.1,573.379 1199.91,574.503Z" stroke="#000000" stroke-width="1.36853" stroke-linecap="round" fill="#acd3ff" stroke-linejoin="round"/>
<path d="M1197.71,594.473C1197.95,605.773 1246.96,611.739 1229.69,587.219C1217.13,569.392 1197.51,585.015 1197.71,594.473Z" fill="#150000"/>
<path d="M1211.29,583.456C1207.9,583.018 1205.05,587.977 1208.61,589.59C1211.25,590.786 1215.19,589.34 1214.84,586.333C1214.65,584.67 1212.82,583.654 1211.29,583.456Z" fill="#ffffff"/>
</g>
</svg>
